<svg width="16" height="16" viewBox="0 0 16 16" fill="none" xmlns="http://www.w3.org/2000/svg">
    <path fill-rule="evenodd" clip-rule="evenodd" d="M13.3659 4.23441C13.5159 4.38443 13.6002 4.58788 13.6002 4.80001C13.6002 5.01214 13.5159 5.21559 13.3659 5.36561L6.96593 11.7656C6.8159 11.9156 6.61246 11.9998 6.40033 11.9998C6.18819 11.9998 5.98475 11.9156 5.83473 11.7656L2.63473 8.56561C2.489 8.41473 2.40836 8.21265 2.41019 8.00289C2.41201 7.79313 2.49614 7.59248 2.64447 7.44416C2.7928 7.29583 2.99345 7.2117 3.2032 7.20987C3.41296 7.20805 3.61504 7.28869 3.76593 7.43441L6.40033 10.0688L12.2347 4.23441C12.3847 4.08444 12.5882 4.00018 12.8003 4.00018C13.0125 4.00018 13.2159 4.08444 13.3659 4.23441Z" fill="#111111"/>
</svg>